# xmcd
#
# Track frame offsets:
# 150
# 15492
# 30609
# 44784
# 57582
# 87806
# 99651
# 115993
# 127460
# 139908
#
# Disc length: 2099 seconds
#
#
# Revision: 0
# Processed by: cddbd v1.5PL3 Copyright (c) Steve Scherf et al.
# Submitted via: FreeRIP 2.53 
#
DISCID=9308310a
DTITLE=Conlee, John - Greatest Hits
DYEAR=1900
DGENRE=Country
TTITLE0=Rose Colored Glasses
TTITLE1=Friday Night Blues
TTITLE2=Lady Lay Down
TTITLE3=She Can't Say That Anymore
TTITLE4=Baby, You're Something
TTITLE5=Backside Of Thirty
TTITLE6=Miss Emily's Picture
TTITLE7=Busted
TTITLE8=Common Man
TTITLE9=I Don't Remember Loving You
EXTD=
EXTT0=
EXTT1=
EXTT2=
EXTT3=
EXTT4=
EXTT5=
EXTT6=
EXTT7=
EXTT8=
EXTT9=
PLAYORDER=
